<svg width="48" height="51" viewBox="0 0 48 51" fill="none" xmlns="http://www.w3.org/2000/svg">
<path d="M23.8333 41.5962L27.1333 44.84L23.8333 48.0837L20.5332 44.84L23.8333 41.5962ZM47.3333 38.0359L40.3747 44.5088L30.943 44.506L25.4758 39.1707L25.4628 29.8274L31.9677 22.9426L47.1979 22.9133L47.3333 38.0368V38.0359ZM33.9789 34.1592L42.6118 25.6736L33.9789 25.6901V34.1592ZM35.9939 36.0709H44.5157L44.441 27.7679L35.9939 36.0709ZM28.2645 30.9062L28.2738 38.0231L29.1642 38.8918L31.1791 36.9112V27.8211L28.2645 30.9062ZM42.4139 38.823H33.1941L31.1511 40.8311L32.0975 41.754L39.2604 41.7567L42.4139 38.823ZM14.9494 19.0484L14.6488 11.0711L23.7567 2.08374L33.0541 11.0628L32.8291 19.065L23.8734 27.0038L14.9484 19.0484H14.9494ZM25.2761 14.2351L29.4413 11.4325L25.2761 7.40992V14.2351ZM22.4763 7.24663L18.2522 11.4142L22.4763 14.2415V7.24663ZM17.5719 14.2883L17.7035 17.7889L22.4763 22.0436V17.5724L17.5719 14.2883ZM30.0638 17.8109L30.1628 14.2818L25.2761 17.5697V22.0546L30.0629 17.8109H30.0638ZM22.1897 39.1698L16.7226 44.5051L7.29086 44.5079L0.333252 38.0359L0.468578 22.9124L15.6988 22.9417L22.2037 29.8265L22.1907 39.1698H22.1897ZM19.4011 30.9053L16.4865 27.8202V36.9103L18.5014 38.8909L19.3918 38.0222L19.4011 30.9053ZM3.15083 36.07H11.6726L3.22549 27.767L3.15083 36.07ZM13.6876 34.1582V25.6892L5.05472 25.6727L13.6876 34.1582ZM15.57 41.7531L16.5163 40.8302L14.4734 38.8221H5.25257L8.40613 41.7558L15.5691 41.7531H15.57Z" fill="url(#paint0_linear_91_13271)"/>
<defs>
<linearGradient id="paint0_linear_91_13271" x1="8.25768" y1="-1.39301" x2="50.1323" y2="64.9507" gradientUnits="userSpaceOnUse">
<stop offset="0.17997" stop-color="#3BD7A3"/>
<stop offset="0.758106" stop-color="#03B9E8"/>
</linearGradient>
</defs>
</svg>
